<svg xmlns="http://www.w3.org/2000/svg" viewBox="0 0 16 16" stroke-width="0" fill="#0C111E">
<path d="M11.3334 6V4.66667C11.3334 3.78261 10.9822 2.93477 10.3571 2.30964C9.73198 1.68452 8.88414 1.33333 8.00008 1.33333C7.11603 1.33333 6.26818 1.68452 5.64306 2.30964C5.01794 2.93477 4.66675 3.78261 4.66675 4.66667V6C4.13631 6 3.62761 6.21071 3.25253 6.58579C2.87746 6.96086 2.66675 7.46957 2.66675 8V12.6667C2.66675 13.1971 2.87746 13.7058 3.25253 14.0809C3.62761 14.456 4.13631 14.6667 4.66675 14.6667H11.3334C11.8638 14.6667 12.3726 14.456 12.7476 14.0809C13.1227 13.7058 13.3334 13.1971 13.3334 12.6667V8C13.3334 7.46957 13.1227 6.96086 12.7476 6.58579C12.3726 6.21071 11.8638 6 11.3334 6ZM6.00008 4.66667C6.00008 4.13623 6.21079 3.62753 6.58587 3.25245C6.96094 2.87738 7.46965 2.66667 8.00008 2.66667C8.53051 2.66667 9.03922 2.87738 9.41429 3.25245C9.78937 3.62753 10.0001 4.13623 10.0001 4.66667V6H6.00008V4.66667ZM12.0001 12.6667C12.0001 12.8435 11.9298 13.013 11.8048 13.1381C11.6798 13.2631 11.5102 13.3333 11.3334 13.3333H4.66675C4.48994 13.3333 4.32037 13.2631 4.19534 13.1381C4.07032 13.013 4.00008 12.8435 4.00008 12.6667V8C4.00008 7.82319 4.07032 7.65362 4.19534 7.5286C4.32037 7.40357 4.48994 7.33333 4.66675 7.33333H11.3334C11.5102 7.33333 11.6798 7.40357 11.8048 7.5286C11.9298 7.65362 12.0001 7.82319 12.0001 8V12.6667Z"/>
</svg>